<svg width="502" height="356" viewBox="0 0 502 356" fill="none" xmlns="http://www.w3.org/2000/svg">
<rect width="502" height="356" fill="black"/>
<path fill-rule="evenodd" clip-rule="evenodd" d="M172.801 42.3752C166.1 46.6727 163.867 55.4233 167.691 62.4058L213.594 146.233L39.5146 124.796C28.5517 123.446 18.5702 131.239 17.2202 142.202L16.3086 149.604C16.1061 151.248 17.2751 152.746 18.9195 152.948L231.614 179.14L288.164 282.409C293.072 291.372 302.92 296.47 313.072 295.303C331.656 293.167 341.474 272.2 331.214 256.559L284.726 185.68L382.682 197.743C384.327 197.945 385.824 196.776 386.026 195.132L386.938 187.73C388.288 176.767 380.495 166.785 369.532 165.435L262.829 152.295L193.649 46.8195C189.093 39.8734 179.794 37.891 172.801 42.3752ZM262.829 152.295L213.594 146.233L231.614 179.14L284.726 185.68L262.829 152.295Z" fill="#F4D35E"/>
<path d="M107.24 229.75H90.972L88.032 242H70L88.032 186.14H111.062L128.31 242H110.18L107.24 229.75ZM99.008 198.194L93.226 218.872H104.888L99.4 198.194H99.008ZM141.023 191.334C138.802 191.334 136.875 190.583 135.241 189.08C133.673 187.577 132.889 185.781 132.889 183.69C132.889 181.599 133.673 179.803 135.241 178.3C136.875 176.797 138.802 176.046 141.023 176.046C143.245 176.046 145.139 176.797 146.707 178.3C148.275 179.803 149.059 181.599 149.059 183.69C149.059 185.781 148.275 187.577 146.707 189.08C145.139 190.583 143.245 191.334 141.023 191.334ZM132.595 196.92H149.353V242H132.595V196.92ZM185.593 195.94C186.442 195.94 187.324 196.038 188.239 196.234C189.219 196.43 189.937 196.659 190.395 196.92C190.395 198.357 190.231 200.742 189.905 204.074C189.578 207.341 189.284 209.66 189.023 211.032C188.369 210.967 187.161 210.934 185.397 210.934C181.281 210.934 177.622 211.163 174.421 211.62V242H157.663V196.92H171.677L173.637 204.172H173.735C175.629 201.689 177.655 199.697 179.811 198.194C181.967 196.691 183.894 195.94 185.593 195.94ZM228.017 229.75H211.749L208.809 242H190.777L208.809 186.14H231.839L249.087 242H230.957L228.017 229.75ZM219.785 198.194L214.003 218.872H225.665L220.177 198.194H219.785ZM271.38 191.824C270.923 192.281 270.694 193.686 270.694 196.038V196.92H281.082V206.524H270.694V242H253.936V206.524H246.586V197.802L253.936 196.92V195.45C253.936 192.575 254.328 189.831 255.112 187.218C255.896 184.605 256.615 183.037 257.268 182.514C259.293 180.815 263.605 179.966 270.204 179.966C273.797 179.966 277.815 180.227 282.258 180.75C282.258 181.534 282.127 183.102 281.866 185.454C281.67 187.806 281.474 189.799 281.278 191.432L277.064 191.334C273.601 191.334 271.707 191.497 271.38 191.824ZM313.261 195.94C314.11 195.94 314.992 196.038 315.907 196.234C316.887 196.43 317.605 196.659 318.063 196.92C318.063 198.357 317.899 200.742 317.573 204.074C317.246 207.341 316.952 209.66 316.691 211.032C316.037 210.967 314.829 210.934 313.065 210.934C308.949 210.934 305.29 211.163 302.089 211.62V242H285.331V196.92H299.345L301.305 204.172H301.403C303.297 201.689 305.323 199.697 307.479 198.194C309.635 196.691 311.562 195.94 313.261 195.94ZM346.349 242L344.781 235.826C341.775 240.726 337.594 243.176 332.237 243.176C327.859 243.176 324.266 241.967 321.457 239.55C318.713 237.067 317.341 233.605 317.341 229.162C317.341 226.418 318.125 224.033 319.693 222.008C321.326 219.917 323.547 218.447 326.357 217.598C330.015 216.553 335.667 215.965 343.311 215.834C343.311 211.522 343.115 209.235 342.723 208.974C342.396 208.713 341.351 208.582 339.587 208.582C338.476 208.582 336.941 208.647 334.981 208.778C331.845 208.909 327.598 209.268 322.241 209.856C321.718 206.328 321.326 202.539 321.065 198.488C324.527 197.769 328.153 197.181 331.943 196.724C335.732 196.201 339.129 195.94 342.135 195.94C347.361 195.94 351.281 196.822 353.895 198.586C356.508 200.285 358.207 202.539 358.991 205.348C359.775 208.157 360.134 211.718 360.069 216.03L359.971 230.436L360.265 242H346.349ZM337.921 232.2C339.619 232.2 341.416 231.873 343.311 231.22V223.968H342.527C337.692 223.968 335.013 224.229 334.491 224.752C334.164 225.079 333.903 225.569 333.707 226.222C333.576 226.875 333.511 227.496 333.511 228.084C333.511 229.652 333.87 230.73 334.589 231.318C335.307 231.906 336.418 232.2 337.921 232.2ZM376.357 191.334C374.136 191.334 372.209 190.583 370.575 189.08C369.007 187.577 368.223 185.781 368.223 183.69C368.223 181.599 369.007 179.803 370.575 178.3C372.209 176.797 374.136 176.046 376.357 176.046C378.579 176.046 380.473 176.797 382.041 178.3C383.609 179.803 384.393 181.599 384.393 183.69C384.393 185.781 383.609 187.577 382.041 189.08C380.473 190.583 378.579 191.334 376.357 191.334ZM367.929 196.92H384.687V242H367.929V196.92ZM440.919 242H422.691L413.381 223.674C412.466 221.779 411.257 220.571 409.755 220.048V242H392.997V183.2L409.755 182.514V215.932C411.323 215.279 412.662 213.939 413.773 211.914L422.103 196.92L440.429 196.822L430.923 212.11C429.42 214.527 427.787 216.455 426.023 217.892C427.525 219.525 429.224 222.008 431.119 225.34L440.919 242Z" fill="white"/>
</svg>
