<svg width="122" height="98" viewBox="0 0 122 98" fill="none" xmlns="http://www.w3.org/2000/svg">
<path d="M12.6942 62.9998H7.38218L6.42218 66.9998H0.53418L6.42218 48.7598H13.9422L19.5742 66.9998H13.6542L12.6942 62.9998ZM10.0062 52.6958L8.11818 59.4478H11.9262L10.1342 52.6958H10.0062ZM23.7254 50.4558C23.0001 50.4558 22.3708 50.2105 21.8374 49.7198C21.3254 49.2292 21.0694 48.6425 21.0694 47.9598C21.0694 47.2772 21.3254 46.6905 21.8374 46.1998C22.3708 45.7092 23.0001 45.4638 23.7254 45.4638C24.4508 45.4638 25.0694 45.7092 25.5814 46.1998C26.0934 46.6905 26.3494 47.2772 26.3494 47.9598C26.3494 48.6425 26.0934 49.2292 25.5814 49.7198C25.0694 50.2105 24.4508 50.4558 23.7254 50.4558ZM20.9734 52.2798H26.4454V66.9998H20.9734V52.2798ZM38.2787 51.9598C38.556 51.9598 38.844 51.9918 39.1427 52.0558C39.4627 52.1198 39.6973 52.1945 39.8467 52.2798C39.8467 52.7492 39.7933 53.5278 39.6867 54.6158C39.58 55.6825 39.484 56.4398 39.3987 56.8878C39.1853 56.8665 38.7907 56.8558 38.2147 56.8558C36.8707 56.8558 35.676 56.9305 34.6307 57.0798V66.9998H29.1587V52.2798H33.7347L34.3747 54.6478H34.4067C35.0253 53.8372 35.6867 53.1865 36.3907 52.6958C37.0947 52.2052 37.724 51.9598 38.2787 51.9598ZM52.1317 62.9998H46.8197L45.8597 66.9998H39.9717L45.8597 48.7598H53.3797L59.0117 66.9998H53.0917L52.1317 62.9998ZM49.4437 52.6958L47.5557 59.4478H51.3637L49.5717 52.6958H49.4437ZM66.2909 50.6158C66.1416 50.7652 66.0669 51.2238 66.0669 51.9918V52.2798H69.4589V55.4158H66.0669V66.9998H60.5949V55.4158H58.1949V52.5678L60.5949 52.2798V51.7998C60.5949 50.8612 60.7229 49.9652 60.9789 49.1118C61.2349 48.2585 61.4696 47.7465 61.6829 47.5758C62.3443 47.0212 63.7523 46.7438 65.9069 46.7438C67.0803 46.7438 68.3923 46.8292 69.8429 46.9998C69.8429 47.2558 69.8003 47.7678 69.7149 48.5358C69.6509 49.3038 69.5869 49.9545 69.5229 50.4878L68.1469 50.4558C67.0163 50.4558 66.3976 50.5092 66.2909 50.6158ZM79.9662 51.9598C80.2435 51.9598 80.5315 51.9918 80.8302 52.0558C81.1502 52.1198 81.3848 52.1945 81.5342 52.2798C81.5342 52.7492 81.4808 53.5278 81.3742 54.6158C81.2675 55.6825 81.1715 56.4398 81.0862 56.8878C80.8728 56.8665 80.4782 56.8558 79.9022 56.8558C78.5582 56.8558 77.3635 56.9305 76.3182 57.0798V66.9998H70.8462V52.2798H75.4222L76.0622 54.6478H76.0942C76.7128 53.8372 77.3742 53.1865 78.0782 52.6958C78.7822 52.2052 79.4115 51.9598 79.9662 51.9598ZM90.7704 66.9998L90.2584 64.9838C89.2771 66.5838 87.9118 67.3838 86.1624 67.3838C84.7331 67.3838 83.5598 66.9892 82.6424 66.1998C81.7464 65.3892 81.2984 64.2585 81.2984 62.8078C81.2984 61.9118 81.5544 61.1332 82.0664 60.4718C82.5998 59.7892 83.3251 59.3092 84.2424 59.0318C85.4371 58.6905 87.2824 58.4985 89.7784 58.4558C89.7784 57.0478 89.7144 56.3012 89.5864 56.2158C89.4798 56.1305 89.1384 56.0878 88.5624 56.0878C88.1998 56.0878 87.6984 56.1092 87.0584 56.1518C86.0344 56.1945 84.6478 56.3118 82.8984 56.5038C82.7278 55.3518 82.5998 54.1145 82.5144 52.7918C83.6451 52.5572 84.8291 52.3652 86.0664 52.2158C87.3038 52.0452 88.4131 51.9598 89.3944 51.9598C91.1011 51.9598 92.3811 52.2478 93.2344 52.8238C94.0878 53.3785 94.6424 54.1145 94.8984 55.0318C95.1544 55.9492 95.2718 57.1118 95.2504 58.5198L95.2184 63.2238L95.3144 66.9998H90.7704ZM88.0184 63.7998C88.5731 63.7998 89.1598 63.6932 89.7784 63.4798V61.1118H89.5224C87.9438 61.1118 87.0691 61.1972 86.8984 61.3678C86.7918 61.4745 86.7064 61.6345 86.6424 61.8478C86.5998 62.0612 86.5784 62.2638 86.5784 62.4558C86.5784 62.9678 86.6958 63.3198 86.9304 63.5118C87.1651 63.7038 87.5278 63.7998 88.0184 63.7998ZM100.569 50.4558C99.8438 50.4558 99.2145 50.2105 98.6812 49.7198C98.1692 49.2292 97.9132 48.6425 97.9132 47.9598C97.9132 47.2772 98.1692 46.6905 98.6812 46.1998C99.2145 45.7092 99.8438 45.4638 100.569 45.4638C101.295 45.4638 101.913 45.7092 102.425 46.1998C102.937 46.6905 103.193 47.2772 103.193 47.9598C103.193 48.6425 102.937 49.2292 102.425 49.7198C101.913 50.2105 101.295 50.4558 100.569 50.4558ZM97.8172 52.2798H103.289V66.9998H97.8172V52.2798ZM121.65 66.9998H115.698L112.658 61.0158C112.36 60.3972 111.965 60.0025 111.474 59.8318V66.9998H106.002V47.7998L111.474 47.5758V58.4878C111.986 58.2745 112.424 57.8372 112.786 57.1758L115.506 52.2798L121.49 52.2478L118.386 57.2398C117.896 58.0292 117.362 58.6585 116.786 59.1278C117.277 59.6612 117.832 60.4718 118.45 61.5598L121.65 66.9998Z" fill="#4F42B5"/>
<mask id="path-2-inside-1_32_17" fill="white">
<path fill-rule="evenodd" clip-rule="evenodd" d="M47.2346 11.4792C45.4 12.6557 44.7888 15.0515 45.8356 16.9631L58.403 39.9132L12.5057 34.2613C8.531 33.7719 4.91209 36.5972 4.42264 40.5719C4.34922 41.1681 4.77302 41.711 5.36922 41.7844L63.3365 48.9226L78.8186 77.1956C80.1624 79.6496 82.8586 81.0453 85.6381 80.7258C90.726 80.141 93.4139 74.4008 90.6051 70.1184L77.8775 50.7132L104.432 53.9832C105.028 54.0566 105.571 53.6328 105.644 53.0366C106.134 49.0619 103.308 45.443 99.3335 44.9535L71.8826 41.5731L52.9423 12.6959C51.695 10.7942 49.149 10.2515 47.2346 11.4792ZM71.8826 41.5731L58.403 39.9132L63.3365 48.9226L77.8775 50.7132L71.8826 41.5731Z"/>
</mask>
<path d="M45.8356 16.9631L47.5898 16.0025L47.5898 16.0025L45.8356 16.9631ZM47.2346 11.4792L46.155 9.7956L47.2346 11.4792ZM12.5057 34.2613L12.2613 36.2463L12.5057 34.2613ZM4.42264 40.5719L2.43763 40.3275L2.43763 40.3275L4.42264 40.5719ZM5.36922 41.7844L5.12478 43.7694L5.12478 43.7694L5.36922 41.7844ZM78.8186 77.1956L80.5728 76.235L78.8186 77.1956ZM85.6381 80.7258L85.8665 82.7127L85.8665 82.7127L85.6381 80.7258ZM90.6051 70.1184L88.9327 71.2153L90.6051 70.1184ZM104.432 53.9832L104.187 55.9682L104.187 55.9682L104.432 53.9832ZM105.644 53.0366L103.659 52.7921L103.659 52.7921L105.644 53.0366ZM99.3335 44.9535L99.5779 42.9685L99.3335 44.9535ZM52.9423 12.6959L54.6147 11.599L52.9423 12.6959ZM47.5898 16.0025C47.0477 15.0126 47.3642 13.772 48.3143 13.1627L46.155 9.7956C43.4357 11.5394 42.5298 15.0903 44.0814 17.9237L47.5898 16.0025ZM60.1572 38.9526L47.5898 16.0025L44.0814 17.9237L56.6488 40.8738L60.1572 38.9526ZM12.2613 36.2463L58.1585 41.8982L58.6474 37.9282L12.7501 32.2763L12.2613 36.2463ZM6.40764 40.8164C6.7621 37.938 9.38285 35.8919 12.2613 36.2463L12.7501 32.2763C7.67915 31.6519 3.06208 35.2565 2.43763 40.3275L6.40764 40.8164ZM5.61366 39.7994C6.11375 39.861 6.46922 40.3163 6.40764 40.8164L2.43763 40.3275C2.22921 42.02 3.43228 43.561 5.12478 43.7694L5.61366 39.7994ZM63.5809 46.9376L5.61366 39.7994L5.12478 43.7694L63.092 50.9076L63.5809 46.9376ZM80.5728 76.235L65.0907 47.962L61.5823 49.8832L77.0644 78.1562L80.5728 76.235ZM85.4098 78.7389C83.4383 78.9655 81.5259 77.9756 80.5728 76.235L77.0644 78.1562C78.7989 81.3236 82.2789 83.1251 85.8665 82.7127L85.4098 78.7389ZM88.9327 71.2153C90.9249 74.2527 89.0185 78.3241 85.4098 78.7389L85.8665 82.7127C92.4335 81.9579 95.9028 74.5488 92.2775 69.0215L88.9327 71.2153ZM76.2051 51.8101L88.9327 71.2153L92.2775 69.0215L79.5498 49.6163L76.2051 51.8101ZM104.676 51.9982L78.1219 48.7282L77.633 52.6982L104.187 55.9682L104.676 51.9982ZM103.659 52.7921C103.721 52.292 104.176 51.9366 104.676 51.9982L104.187 55.9682C105.88 56.1766 107.421 54.9735 107.629 53.281L103.659 52.7921ZM99.089 46.9385C101.967 47.293 104.014 49.9137 103.659 52.7921L107.629 53.281C108.254 48.21 104.649 43.593 99.5779 42.9685L99.089 46.9385ZM71.6381 43.5582L99.089 46.9385L99.5779 42.9685L72.127 39.5881L71.6381 43.5582ZM51.2699 13.7928L70.2102 42.67L73.555 40.4763L54.6147 11.599L51.2699 13.7928ZM48.3143 13.1627C49.3056 12.527 50.624 12.808 51.2699 13.7928L54.6147 11.599C52.766 8.78039 48.9924 7.97596 46.155 9.7956L48.3143 13.1627ZM58.1585 41.8982L71.6381 43.5582L72.127 39.5881L58.6474 37.9282L58.1585 41.8982ZM65.0907 47.962L60.1572 38.9526L56.6488 40.8738L61.5823 49.8832L65.0907 47.962ZM78.1219 48.7282L63.5809 46.9376L63.092 50.9076L77.633 52.6982L78.1219 48.7282ZM70.2102 42.67L76.2051 51.8101L79.5498 49.6163L73.555 40.4763L70.2102 42.67Z" fill="#4F42B5" mask="url(#path-2-inside-1_32_17)"/>
</svg>
