<svg width="204" height="71" viewBox="0 0 204 71" fill="none" xmlns="http://www.w3.org/2000/svg">
<path d="M94.16 42H88.848L87.888 46H82L87.888 27.76H95.408L101.04 46H95.12L94.16 42ZM91.472 31.696L89.584 38.448H93.392L91.6 31.696H91.472ZM105.191 29.456C104.466 29.456 103.837 29.2106 103.303 28.72C102.791 28.2293 102.535 27.6426 102.535 26.96C102.535 26.2773 102.791 25.6906 103.303 25.2C103.837 24.7093 104.466 24.464 105.191 24.464C105.917 24.464 106.535 24.7093 107.047 25.2C107.559 25.6906 107.815 26.2773 107.815 26.96C107.815 27.6426 107.559 28.2293 107.047 28.72C106.535 29.2106 105.917 29.456 105.191 29.456ZM102.439 31.28H107.911V46H102.439V31.28ZM119.745 30.96C120.022 30.96 120.31 30.992 120.609 31.056C120.929 31.12 121.163 31.1946 121.313 31.28C121.313 31.7493 121.259 32.528 121.153 33.616C121.046 34.6826 120.95 35.44 120.865 35.888C120.651 35.8666 120.257 35.856 119.681 35.856C118.337 35.856 117.142 35.9306 116.097 36.08V46H110.625V31.28H115.201L115.841 33.648H115.873C116.491 32.8373 117.153 32.1866 117.857 31.696C118.561 31.2053 119.19 30.96 119.745 30.96ZM133.598 42H128.286L127.326 46H121.438L127.326 27.76H134.846L140.478 46H134.558L133.598 42ZM130.91 31.696L129.022 38.448H132.83L131.038 31.696H130.91ZM147.757 29.616C147.607 29.7653 147.533 30.224 147.533 30.992V31.28H150.925V34.416H147.533V46H142.061V34.416H139.661V31.568L142.061 31.28V30.8C142.061 29.8613 142.189 28.9653 142.445 28.112C142.701 27.2586 142.935 26.7466 143.149 26.576C143.81 26.0213 145.218 25.744 147.373 25.744C148.546 25.744 149.858 25.8293 151.309 26C151.309 26.256 151.266 26.768 151.181 27.536C151.117 28.304 151.053 28.9546 150.989 29.488L149.613 29.456C148.482 29.456 147.863 29.5093 147.757 29.616ZM161.432 30.96C161.709 30.96 161.997 30.992 162.296 31.056C162.616 31.12 162.851 31.1946 163 31.28C163 31.7493 162.947 32.528 162.84 33.616C162.733 34.6826 162.637 35.44 162.552 35.888C162.339 35.8666 161.944 35.856 161.368 35.856C160.024 35.856 158.829 35.9306 157.784 36.08V46H152.312V31.28H156.888L157.528 33.648H157.56C158.179 32.8373 158.84 32.1866 159.544 31.696C160.248 31.2053 160.877 30.96 161.432 30.96ZM172.236 46L171.724 43.984C170.743 45.584 169.378 46.384 167.628 46.384C166.199 46.384 165.026 45.9893 164.108 45.2C163.212 44.3893 162.764 43.2586 162.764 41.808C162.764 40.912 163.02 40.1333 163.532 39.472C164.066 38.7893 164.791 38.3093 165.708 38.032C166.903 37.6906 168.748 37.4986 171.244 37.456C171.244 36.048 171.18 35.3013 171.052 35.216C170.946 35.1306 170.604 35.088 170.028 35.088C169.666 35.088 169.164 35.1093 168.524 35.152C167.5 35.1946 166.114 35.312 164.364 35.504C164.194 34.352 164.066 33.1146 163.98 31.792C165.111 31.5573 166.295 31.3653 167.532 31.216C168.77 31.0453 169.879 30.96 170.86 30.96C172.567 30.96 173.847 31.248 174.7 31.824C175.554 32.3786 176.108 33.1146 176.364 34.032C176.62 34.9493 176.738 36.112 176.716 37.52L176.684 42.224L176.78 46H172.236ZM169.484 42.8C170.039 42.8 170.626 42.6933 171.244 42.48V40.112H170.988C169.41 40.112 168.535 40.1973 168.364 40.368C168.258 40.4746 168.172 40.6346 168.108 40.848C168.066 41.0613 168.044 41.264 168.044 41.456C168.044 41.968 168.162 42.32 168.396 42.512C168.631 42.704 168.994 42.8 169.484 42.8ZM182.035 29.456C181.31 29.456 180.68 29.2106 180.147 28.72C179.635 28.2293 179.379 27.6426 179.379 26.96C179.379 26.2773 179.635 25.6906 180.147 25.2C180.68 24.7093 181.31 24.464 182.035 24.464C182.76 24.464 183.379 24.7093 183.891 25.2C184.403 25.6906 184.659 26.2773 184.659 26.96C184.659 27.6426 184.403 28.2293 183.891 28.72C183.379 29.2106 182.76 29.456 182.035 29.456ZM179.283 31.28H184.755V46H179.283V31.28ZM203.116 46H197.164L194.124 40.016C193.826 39.3973 193.431 39.0026 192.94 38.832V46H187.468V26.8L192.94 26.576V37.488C193.452 37.2746 193.89 36.8373 194.252 36.176L196.972 31.28L202.956 31.248L199.852 36.24C199.362 37.0293 198.828 37.6586 198.252 38.128C198.743 38.6613 199.298 39.472 199.916 40.56L203.116 46Z" fill="#4F42B5"/>
<path fill-rule="evenodd" clip-rule="evenodd" d="M34.1429 8.29758C32.8168 9.14804 32.375 10.8798 33.1316 12.2616L42.2158 28.8508L9.0396 24.7654C6.16654 24.4116 3.55065 26.4539 3.19686 29.327C3.14379 29.7579 3.45013 30.1503 3.88109 30.2034L45.7819 35.3631L56.973 55.7999C57.9444 57.5738 59.8933 58.5826 61.9024 58.3517C65.5801 57.929 67.523 53.7797 65.4927 50.6842L56.2927 36.6575L75.4871 39.0211C75.9181 39.0742 76.3105 38.7678 76.3636 38.3369C76.7174 35.4638 74.6751 32.8479 71.802 32.4941L51.9594 30.0507L38.2687 9.17709C37.3671 7.80247 35.5267 7.41016 34.1429 8.29758ZM51.9594 30.0507L42.2158 28.8508L45.7819 35.3631L56.2927 36.6575L51.9594 30.0507Z" fill="#4F42B5"/>
</svg>
